<?xml version="1.0" ?><!DOCTYPE svg  PUBLIC '-//W3C//DTD SVG 1.1//EN'  'http://www.w3.org/Graphics/SVG/1.1/DTD/svg11.dtd'><svg height="32px" id="Layer_1" style="enable-background:new 0 0 32 32;" version="1.1" viewBox="0 0 32 32" width="32px" xml:space="preserve" xmlns="http://www.w3.org/2000/svg" xmlns:xlink="http://www.w3.org/1999/xlink"><g transform="translate(144 240)"><path d="M-128.725-210.977c-2.732,0.488-7.75,0.568-9.25,0.006c-0.955-0.487-1.785-1.217-2.406-2.093   c-1.078-1.532-1.504-3.422-1.605-5.269c-0.107-2.198,0.186-4.406,0.754-6.529c0.156-0.673,0.563-1.286,1.141-1.672   c0.824-0.556,1.836-0.722,2.811-0.771c1.629-0.039,3.252,0.226,4.82,0.654c-0.955-1.119-1.396-2.574-1.592-4.008   c-0.186-1.388-0.182-2.794-0.023-4.185c0.039-0.45,0.086-0.931,0.374-1.304c0.723-0.976,2.434-1.551,3.19-1.141   c0.756,0.408,1.537,6.033,4.387,8.844c1.054,1.103,2.21,2.105,3.454,2.989c0.541,2.645,0.527,5.396,0.172,8.082   c-0.184,1.2-0.309,2.396-0.898,3.466c-0.436,0.832-1.2,1.441-2.026,1.855C-126.453-211.505-127.59-211.211-128.725-210.977   L-128.725-210.977z"/><path d="M-113.992-226.437h-3.673c-2.069,0-3.766,1.708-3.766,3.779v7.625c0,2.071,1.694,3.721,3.766,3.721h3.673V-226.437z"/></g></svg>