<?xml version="1.0" ?><!DOCTYPE svg  PUBLIC '-//W3C//DTD SVG 1.1//EN'  'http://www.w3.org/Graphics/SVG/1.1/DTD/svg11.dtd'><svg height="96" version="1.1" viewBox="0 0 96 96" width="96" xmlns="http://www.w3.org/2000/svg" xmlns:xlink="http://www.w3.org/1999/xlink"><path d="M29.44 62.58h-21.968c-3.868 0-7.016-3.148-7.016-7.016v-41.976c0-3.868 3.148-7.012 7.016-7.012h21.968c3.868 0 7.016 3.144 7.016 7.012v41.976c0 3.864-3.148 7.016-7.016 7.016z" fill="#000000"/><path d="M93.96 44.348c1.084-3.044 1.168-7.908-1.964-11.196 0.252-5.432-1.144-9.288-4.148-11.5-0.044-2.828-1.3-6.104-3.292-8.396-1.532-1.752-3.3-2.688-5.108-2.688h-36.912c-0.568 0-1.3 0.132-2.080 0.32v46.84c3.216 4.124 5.58 9.592 8 16.58v10.744c0 0.36 0.1 0.72 0.284 1.032 1.276 2.116 3.5 3.336 6.096 3.336v0c3.188 0 6.476-1.836 8.812-4.92 2.304-3.048 5.56-9.812 2.772-21.92h16.856c3.66 0 12.26-4.556 12.26-10.796 0.012-2.192-0.236-5.508-1.576-7.436z" fill="#000000"/></svg>